<?xml version="1.0" encoding="UTF-8" standalone="no"?>
<!-- Created with Inkscape (http://www.inkscape.org/) -->

<svg
   version="1.1"
   id="svg2"
   width="128"
   height="128"
   viewBox="0 0 640 640"
   sodipodi:docname="os_astos.svg"
   inkscape:version="1.2 (dc2aedaf03, 2022-05-15)"
   xmlns:inkscape="http://www.inkscape.org/namespaces/inkscape"
   xmlns:sodipodi="http://sodipodi.sourceforge.net/DTD/sodipodi-0.dtd"
   xmlns="http://www.w3.org/2000/svg"
   xmlns:svg="http://www.w3.org/2000/svg">
  <defs
     id="defs6" />
  <sodipodi:namedview
     id="namedview4"
     pagecolor="#505050"
     bordercolor="#ffffff"
     borderopacity="1"
     inkscape:showpageshadow="0"
     inkscape:pageopacity="0"
     inkscape:pagecheckerboard="1"
     inkscape:deskcolor="#505050"
     showgrid="false"
     inkscape:zoom="3.7659574"
     inkscape:cx="45.406781"
     inkscape:cy="72.889832"
     inkscape:window-width="1280"
     inkscape:window-height="994"
     inkscape:window-x="0"
     inkscape:window-y="0"
     inkscape:window-maximized="1"
     inkscape:current-layer="g8" />
  <g
     inkscape:groupmode="layer"
     inkscape:label="Image"
     id="g8">
    <path
       style="fill:#000000;stroke-width:1.47745;image-rendering:auto"
       d="m 102.42064,558.7609 c -10.097902,-1.46936 -17.084252,-7.79513 -20.199282,-18.28937 -2.65348,-8.93928 -3.04896,-59.00053 -0.53759,-68.0503 2.07303,-7.47022 9.4288,-14.82933 16.89564,-16.90331 3.211542,-0.89202 11.604992,-1.62558 18.652132,-1.6301 12.81298,-0.008 12.81298,-0.008 29.52805,-17.37222 9.1933,-9.55018 26.49309,-27.33901 38.444,-39.53074 21.72892,-22.16677 21.72892,-22.16677 11.2266,-24.71646 -11.36379,-2.75883 -16.59899,-6.45771 -19.81029,-13.99677 -2.39865,-5.6312 -3.06084,-70.02339 -0.78056,-75.90232 2.02563,-5.2224 9.25769,-11.56795 15.09195,-13.24195 2.77692,-0.79676 11.09513,-1.44868 18.4849,-1.44868 13.43593,0 13.43593,0 30.41157,-17.36397 9.3366,-9.55018 21.81181,-22.68399 27.7227,-29.18625 5.91089,-6.50226 15.82057,-16.58344 22.02152,-22.40263 11.27445,-10.58034 11.27445,-10.58034 5.38025,-11.57727 -15.54952,-2.63 -20.25642,-5.46689 -24.5343,-14.787 -2.37122,-5.16614 -2.71726,-10.0612 -2.74562,-38.83932 -0.0358,-36.25001 0.60629,-39.72228 8.58628,-46.44006 C 282.86861,81.5177 292.53362,80 321.35921,80 c 30.14963,0 38.1062,1.69428 45.03555,9.58996 2.47362,2.81858 5.02883,7.63268 5.67821,10.69798 0.64937,3.06531 1.18068,19.20586 1.18068,35.86789 0,26.74238 -0.32747,30.95417 -2.79282,35.9197 -3.87371,7.80215 -10.454,12.31054 -20.71224,14.19065 -4.80365,0.8804 -8.879,1.76954 -9.05634,1.97587 -0.17732,0.20633 16.85351,17.99773 37.84631,39.53644 38.16873,39.1613 38.16873,39.1613 55.18556,40.07085 15.59645,0.83363 17.46398,1.25078 22.3741,4.99761 9.5035,7.25195 10.21374,10.592 10.21374,48.03199 0,29.077 -0.3296,33.85375 -2.62614,38.05927 -3.68646,6.75081 -12.43041,12.09595 -21.55624,13.17726 -4.21403,0.49931 -7.92365,1.33157 -8.24358,1.84947 -0.31993,0.51788 16.81556,18.71382 38.07887,40.4354 38.66057,39.49381 38.66057,39.49381 51.21605,39.49476 15.4492,10e-4 22.21265,1.78194 28.82354,7.58901 7.55282,6.63447 8.41822,11.96802 7.85695,48.42312 -0.46901,30.46246 -0.6474,32.15198 -3.95726,37.47807 -1.90636,3.06764 -5.51334,6.63665 -8.01549,7.93115 -10.18405,5.26877 -68.29491,6.29896 -79.97202,1.41774 -2.97115,-1.24199 -6.83889,-4.75687 -9.26163,-8.41665 -4.15998,-6.28408 -4.15998,-6.28408 -4.6375,-38.09929 -0.26263,-17.49836 -0.0637,-34.02219 0.44214,-36.71962 1.14128,-6.08631 8.75388,-14.9675 15.1053,-17.6225 2.62695,-1.0981 7.51182,-1.99655 10.85525,-1.99655 3.34345,0 5.85745,-0.62595 5.58663,-1.39101 -0.2708,-0.76506 -17.21817,-18.60202 -37.66082,-39.63771 -37.16846,-38.24671 -37.16846,-38.24671 -55.03408,-39.70703 -20.45543,-1.67201 -23.8727,-3.29419 -29.34261,-13.929 -3.27723,-6.3717 -3.36355,-7.58614 -2.95423,-41.55642 0.39306,-32.62103 0.62775,-35.27545 3.46235,-39.16131 4.19002,-5.74395 14.68907,-10.81842 22.38324,-10.81842 3.48373,0 6.30265,-0.49875 6.26429,-1.10833 -0.0384,-0.60959 -16.50351,-17.96409 -36.58925,-38.56558 -36.5195,-37.45722 -36.5195,-37.45722 -73.20408,0.36944 -20.1765,20.8047 -36.40383,37.82669 -36.06071,37.82669 5.85069,0 19.24634,4.04205 23.11063,6.97347 8.99692,6.82504 9.8138,10.6728 9.8138,46.22679 0,34.52304 -0.8537,39.5888 -7.78901,46.21894 -3.61623,3.45712 -8.4177,5.18915 -21.48383,7.74988 -3.99047,0.78205 -2.62322,2.40116 33.19374,39.30843 20.54558,21.17102 38.49376,39.10215 39.88483,39.84697 1.39106,0.7448 7.72435,1.35791 14.07396,1.36244 14.17138,0.01 22.11591,2.04725 27.3896,7.02322 6.87414,6.48608 7.76496,11.68956 7.77748,45.42991 0.0119,30.17859 -0.0903,31.2349 -3.68126,38.3456 -5.51141,10.91318 -8.69879,12.58311 -27.43983,14.3763 -19.91206,1.90524 -53.13976,0.67321 -60.0793,-2.22762 -6.25296,-2.61383 -10.94988,-8.42892 -13.01973,-16.11921 -0.97477,-3.62171 -1.40198,-18.4387 -1.11284,-38.59894 0.45617,-31.80798 0.5682,-32.85954 4.01592,-37.69576 4.33864,-6.08596 13.51041,-10.46588 22.00699,-10.50929 4.95727,-0.0253 6.09189,-0.47589 5.16991,-2.05294 -0.64968,-1.11128 -17.19769,-18.41286 -36.77332,-38.44797 -35.59208,-36.42747 -35.59208,-36.42747 -69.21326,-1.67219 -18.49165,19.11541 -34.85642,36.32634 -36.36613,38.24651 -2.74496,3.49122 -2.74496,3.49122 5.38882,4.33108 22.00582,2.27222 26.53776,12.81993 25.49488,59.33711 -0.52688,23.50123 -0.81135,25.64143 -4.22322,31.77307 -5.18604,9.32009 -10.5512,11.93061 -27.66431,13.4606 -17.14799,1.53312 -42.33029,1.47343 -53.32481,-0.12635 z m 64.51289,-16.02067 c 1.07427,-0.68143 2.554,-3.83002 3.28827,-6.99686 1.87016,-8.06562 1.76945,-59.21105 -0.12355,-62.74974 -1.44497,-2.70117 -3.43293,-2.85842 -36.13737,-2.85842 -33.2855,0 -34.669722,0.11483 -36.215672,3.0048 -0.98293,1.83746 -1.72043,15.09135 -1.89836,34.11638 -0.37658,40.26517 -3.9764,36.7758 37.908402,36.74544 17.17379,-0.0119 32.10401,-0.58017 33.17828,-1.2616 z m 188.14606,-1.36725 c 2.2977,-2.30235 3.54405,-39.74667 1.9573,-58.80399 -1.03527,-12.43378 -1.03527,-12.43378 -35.50938,-12.43378 -29.37062,0 -34.81773,0.34378 -36.7953,2.32224 -3.53098,3.53258 -3.46165,65.78154 0.0772,69.322 2.09808,2.09904 6.52778,2.34354 35.3799,1.95279 24.52545,-0.33215 33.47093,-0.93704 34.89028,-2.35926 z m 186.01514,0.21041 c 1.53734,-1.85113 2.14807,-9.91484 2.5272,-33.36761 0.27497,-17.00962 0.0962,-32.53621 -0.39741,-34.50356 -0.89737,-3.57701 -0.89737,-3.57701 -36.23285,-3.57701 -19.4345,0 -35.69181,0.57687 -36.12737,1.28194 -0.43556,0.70505 -0.87478,16.7503 -0.97605,35.65611 -0.14698,27.42343 0.21962,34.63017 1.81257,35.64006 1.09819,0.69623 16.70496,1.27607 34.68169,1.28851 28.60339,0.0198 32.93812,-0.2822 34.71222,-2.41844 z M 262.02982,355.16514 c 2.76804,-2.7713 2.7682,-67.26434 1.6e-4,-70.04432 -1.42686,-1.43304 -10.05431,-2.04097 -33.73777,-2.37736 -27.02847,-0.3839 -32.35672,-0.10064 -35.38009,1.88129 -3.55939,2.33327 -3.55939,2.33327 -3.53677,35.17991 0.0124,18.06565 0.51097,33.61086 1.10784,34.5449 1.7826,2.78958 7.01754,3.18574 39.05007,2.95519 22.86729,-0.16457 31.06282,-0.70418 32.49656,-2.13961 z m 185.3993,-0.71937 c 2.36856,-2.37247 2.63457,-5.92809 2.63457,-35.21653 0,-30.54269 -0.17911,-32.70862 -2.86728,-34.67516 -2.23988,-1.63858 -9.02726,-2.09574 -31.01944,-2.0893 -31.00411,0.009 -38.41257,1.18152 -39.7828,6.29591 -0.48647,1.81579 -0.89358,16.76776 -0.90468,33.22659 -0.019,28.23458 0.15129,30.09667 3.01482,32.9615 2.9032,2.90451 4.4084,3.01681 34.66261,2.58612 28.02518,-0.39896 31.92772,-0.75081 34.2622,-3.08913 z m -92.341,-185.48406 c 1.45802,-1.46169 1.91727,-9.89705 1.91727,-35.21704 0,-31.25298 -0.17586,-33.42358 -2.86728,-35.392 -2.2685,-1.65912 -9.51749,-2.09231 -34.71222,-2.07441 -17.51473,0.0124 -32.842,0.65227 -34.06063,1.42182 -1.8403,1.16216 -2.2917,7.06251 -2.6644,34.82757 -0.47063,35.05919 -0.19358,36.79185 6.09519,38.11805 1.76892,0.37303 16.97691,0.5792 33.79551,0.45816 22.88981,-0.16474 31.0614,-0.70342 32.49656,-2.14215 z"
       id="svg" />
  </g>
</svg>
